<mxfile host="app.diagrams.net" modified="2023-04-20T20:57:31.502Z" agent="Mozilla/5.0 (Windows NT 10.0; Win64; x64; rv:109.0) Gecko/20100101 Firefox/112.0" etag="Q1My5X6FziQ2_Mb3oj2o" version="21.2.1" type="device">
  <diagram name="Page-1" id="IeBDcT1eU1tE5Js5HxwM">
    <mxGraphModel dx="315" dy="166" grid="0" gridSize="10" guides="1" tooltips="1" connect="1" arrows="1" fold="1" page="1" pageScale="1" pageWidth="827" pageHeight="1169" math="0" shadow="0">
      <root>
        <mxCell id="0" />
        <mxCell id="1" parent="0" />
        <mxCell id="SR3Ab0r8PhmCPcxvf1HX-2" value="" style="rounded=0;whiteSpace=wrap;html=1;fillColor=#808080;" vertex="1" parent="1">
          <mxGeometry x="30" y="140" width="710" height="30" as="geometry" />
        </mxCell>
        <mxCell id="SR3Ab0r8PhmCPcxvf1HX-3" value="Login" style="text;html=1;align=center;verticalAlign=middle;whiteSpace=wrap;rounded=0;fontColor=#FFFFFF;" vertex="1" parent="1">
          <mxGeometry x="680" y="140" width="60" height="30" as="geometry" />
        </mxCell>
        <mxCell id="SR3Ab0r8PhmCPcxvf1HX-4" value="Register" style="text;html=1;align=center;verticalAlign=middle;whiteSpace=wrap;rounded=0;fontColor=#FFFFFF;" vertex="1" parent="1">
          <mxGeometry x="630" y="140" width="60" height="30" as="geometry" />
        </mxCell>
        <mxCell id="SR3Ab0r8PhmCPcxvf1HX-5" value="" style="rounded=0;whiteSpace=wrap;html=1;fillColor=#808080;" vertex="1" parent="1">
          <mxGeometry x="30" y="200" width="710" height="30" as="geometry" />
        </mxCell>
        <mxCell id="SR3Ab0r8PhmCPcxvf1HX-6" value="David " style="text;html=1;align=center;verticalAlign=middle;whiteSpace=wrap;rounded=0;fontColor=#FFFFFF;" vertex="1" parent="1">
          <mxGeometry x="680" y="200" width="60" height="30" as="geometry" />
        </mxCell>
        <mxCell id="SR3Ab0r8PhmCPcxvf1HX-7" value="Log Out" style="text;html=1;align=center;verticalAlign=middle;whiteSpace=wrap;rounded=0;fontColor=#FFFFFF;" vertex="1" parent="1">
          <mxGeometry x="630" y="200" width="60" height="30" as="geometry" />
        </mxCell>
        <mxCell id="SR3Ab0r8PhmCPcxvf1HX-10" value="" style="rounded=0;whiteSpace=wrap;html=1;fillColor=#808080;" vertex="1" parent="1">
          <mxGeometry x="30" y="260" width="710" height="30" as="geometry" />
        </mxCell>
        <mxCell id="SR3Ab0r8PhmCPcxvf1HX-11" value="David " style="text;html=1;align=center;verticalAlign=middle;whiteSpace=wrap;rounded=0;fontColor=#FFFFFF;" vertex="1" parent="1">
          <mxGeometry x="680" y="260" width="60" height="30" as="geometry" />
        </mxCell>
        <mxCell id="SR3Ab0r8PhmCPcxvf1HX-12" value="Log Out" style="text;html=1;align=center;verticalAlign=middle;whiteSpace=wrap;rounded=0;fontColor=#FFFFFF;" vertex="1" parent="1">
          <mxGeometry x="630" y="260" width="60" height="30" as="geometry" />
        </mxCell>
        <mxCell id="SR3Ab0r8PhmCPcxvf1HX-13" value="" style="shape=image;verticalLabelPosition=bottom;labelBackgroundColor=default;verticalAlign=top;aspect=fixed;imageAspect=0;image=data:image/png,iVBORw0KGgoAAAANSUhEUgAAAqwAAAQACAQAAACOxcMUAAAABGdBTUEAAYagMeiWXwAAAAJiS0dEAP+Hj8y/AAAACXBIWXMAAB7GAAAexgGRLfIsAABIm0lEQVR42u3dd4AV1d3G8eduhWXpNsSKJVY69oagovRlF1DBnsTua0yMJSq9VzXRRKPGJO/7RqWIaIo1Ruw98Y2aaGxREBWWBURgd94/rjdYKLvLzJnfOff74a+8JXOZO/fhzDNnzpHGqoUAALEp1AIV6Dmt5VQAQFwirdQYRq0AEGewRlqhUSrnVABAfMEaqYZoBYB4gzUbrRQCABBjsEaqZtQKAPEGK4UAAMQerBQCABB7sEZaodFqzmkBgPiCNVIN0QoA8QYrhQAAxB6sFAIAEHuwUggAQOzBmo1WCgEAiDFYKQQAIPZgpRAAgNiDlVErAMQerEQrAMQerDzGAoDYg5VRKwDEHqyRajSGaAWAOIOVvbEAIPZgpRAAgNiDlUIAAGIPVgoBAIg9WCOtYNQKAPEGa3bUSrQCQIzBGmmlxlIIAECcwZotBNjRFQBiDFYKAQCIPVizhUBLTiEAxBesFAIAEHuwZketFAIAEGOwUggAQOzBGmkFo1YAiDdYI60iWgEg3mClEACA2IM10gqNY9QKAHEGK4UAAMQerBQCABB7sGYLAZZnAUCwxlwI0LUCIFgTKAQYtQIgWCkEAMBysEZaSSEAgGClEAAA48EaqYZCAADBmkQhQLQCIFhjHrVSCAAgWGOP1vFEKwCCNe5CgGgFQLBSCACA7WClEABAsCayhgDRCoBgZV4rANgOVh5jASBYEyoEWAobAMFKIQAAloOVQgAAwZpIITCBQgAAwRp/IcB6rQAI1pgLgQkUAgAIVgoBADAdrLzoCoBgTWjUSrQCIFgpBADAcrBGqmHUCoBgpRAAAOPBSiEAgGClEAAA+8FKIQCAYKUQAAD7wRqpRhOJVgAEa7x/VmsihQAAgpVdBgDAdLBGqtEkohUAwUohAACmg5VCAADBSiEAAPaDNdJqTaIQAECwxr+jK6NWAARrzNFKIQCAYE2gECBaARCsFAIACFYKAQDIq2ClEABAsCYyamVRQQAEa+zROlmt+NIAEKzxFgKTGbUCIFgpBAAQrBQCAJBfwZotBIhWAAQrhQAAgtX2n1WMWgEQrPEXAlOIVgAEa9yFAJtlAyBYKQQAEKwUAgCQZ8HKylcACFYKAQAEK68MAEAeBmv2RVcKAQAEK4+xABCsFAIAsFmFGhXU36dYnVWq57WGrxYAI9Z4CwG6VgCMWGMdtXZl1AqAYI2/EGii54hWAFQBFAIAGLGaHrV2UQmFAACCNe5obUohAIAqIN4/n2sqhQAARqxxKlJnCgEAQQXr7lqrdekXAmV6lmgFEEiwXqxuejntaC1RVzXRs/qCrxtAAMHaTxdpbfrRSiEAIJxgPV49dbDW6SULhQAzBACEEayHqqmNaC1RF5XoOQoBAAEEa0al6q4v0i8EitVZxXqeaAUQQLBKTXSQ1lsYtXalEAAQSLBmo3WdjWgtZYYAgCCCVSpVN6218BiLQgBAKMEqNVEPCgEABGucwWqoEOhGIQAgkGA1UwgUUQgACCZYmSEAgGCNPVilUh2k9XrRRiFAtAIIIVgpBAAQrLEHq6lCgG0HAYQRrLlC4CWtTfcMFKsb0QogkGDNFgLrLBQCnSgEAAQSrKZedGXUCiCMYM0WAuv0cvqFQFdmCAAIJFizhcB6G2sIsMsAgDCCNTdD4EUKAQAEa1zBSiEAgGCNPVizhUBt+qPWYnVWKYUAgCCC1VQhwKgVQBjBKpWqh5VCgMdYAMII1mwhUGejEOAxFoAwgjX3ygAzBAAQrLEFq1SiHlproRDoQiEAIJBgzXattRaWZ+mspkQrgCCC1dAMgS4UAgACCVapRN2tbJbNvFYAYQRrthCos1EIlDFqBRBEsBpbQ+BZohVAAMFqphAoohAAEEywZguBSC9aKASaUQgACCJYs4VArV6wMUPgGTZwARBAsGYLgXU2CgFeGQAQRrBKpepuoxDoQiEAIJBgNVQIdFVTZggACCJYpRIbe2MVqROFAIBAglVqoh6qs1AIdKUQABBIsGb3xjISrRQCAMII1mzJuY5CAADBGicKAQAEa+z/rYYKgTI9Q7QC+LoCPz92uS7TBSpL+2OU6vu6Uq24jAB4P2LNFgIH2dhlgFcGAIQSrFKpDrawqCCFAIBwgtXUDAE2cAEQRrDmlsKmEABAsMZaCBxkoxDowisDAAIJVqnUzhoCbJYNIIxgNTdD4HMuK4Bg9T5Ysxu4rLMRrU3pWgGCNYhgzS6FbeAxVnaGAIUAQLCGEKxmNsumEAAI1nCCNVsIrKcQAECwxl0I1NooBJrqeUatAMEaQLBmFxU0sDdWsbqojEIAIFiDCFZDhUBnCgGAYA0kWLOFgIn1WjupjEIAIFiDCFYzm2UzQwAgWMMJVqlE3bVOL9uY10ohABCsIQSroUKgM6NWgGANJFiNFQKsfAUQrCEEa7YQWGtl5SsKAYBgDSFYs5OvZKMQKKcQAAjWIII1t4aAkVcGKAQAgjWEYKUQAECwhl0INNezFAIAwRpAsBqbIcBm2QDBGkKwSiXqZmezbJbCBgjWEII1WwhENpZnoRAACNYwgjW7WXadnk+/EOhKIQAQrIEEq5lCoJBCACBYgwlWQ4VAF7WgEAAI1iCCNVcIvGAhWsspBACCNYhglUrU1UYh0JFCACBYAwnW7N5YZgoB1hAACNYQgtVUIcAMAYBgDSNYs4WAgW0HC9WRNQQAgjWQYM2+6BpZWEOAQgAgWEMJVkOFQGdmCAAEayDBmi0EatMvBIp0IJtlAwRrIMGamyFgZFFBCgGAYA0hWLNvY9Va2dGVQgAgWEMI1mwhYGCz7CJ1ZLNsgGANJFgpBAAQrBQCAAhWPwqBbhZedC1SR5UzQwAgWIMI1tyigmw7CIBgjXXU2t1CIVCkTmpGtAIEaxDBmi0EZGOGAI+xAII1jGDNFQIvUAgAIFjjHbXWUQgAIFjjHbV2U8ZGtJZTCAAEaxDBaqgQ6EIhABCsgQRrthAwMkOgjFErQLAGEaxSqbqrIP1Ra5E6MUMAIFgDCdZsISA9zwwBAAQrhQAAgpVCoD7R2kLPaTUXLkCwBhGtBymiEABAsMabad0sbJZdpI4UAgDBGszJKlV3FdooBFpSCAAEazDRygwBAARr7JnW1UIhUKgD2RsLIFiDGrUWWHjRtZNa6VkKAYBgpRCItxBooacZtQIEazCFgIFXBgp1IDMEAII1sELgRX2R/qiVQgAgWEOK1oyes7GoIIUAQLCGUwjUMUMAAMEa76i1u41CgBkCAMEaViFgYoYAhQBAsIZVCEQ2Zgg00/NEK0CwBjNqzTBDAADBGqcSdbdQCGR3dH1aa7iwAYI1iGjtIlkoBDpSCAAEK4VA/IVAC1a+AgjWgAoBI7sMlOsZCgGAYA0kWrsqo5fSHrUWqaPKKQQAgjWYQiC77SCFAECwEqwxFwIv2JghQCEAEKwhFQIvWigEmrOGAECwBlMI9FDGSiHAtoMAwRrKqLWbZKMQaEYhABCsAUVrgZVC4HlGrQDBGkgh0J1CACBYCdZAC4GOzBAACNagorUw/VFrkTqqBYUAQLAGUwj0UIGVzbJZVBAgWMNgZCnsInVkhgBAsAZVCBRZKAQ6qSWPsQCCNZhCoLudQuAZ3sYCCFYKgbgLAZZnAQhWCgEKAYBgJVg3UQj0UIGeoxAACFaCNe5C4AULe2OV6VlmCAAEazCFQLGet1AItKIQAAhWCoG4C4GWFAIAwRpUIWBgs+wD1IylsAGCNZhCoLuFQqBYndSKF10BgjWYaO2hQgoBgGAlWONUpC5WCoFyXhkACNagCoEXLBQCrSkEAII1oGg188rA04xaAYI1CMXqYmGz7GwhwAwBgGANQ6mVQqAzMwQAgpVCIF5F6qzmFAIAwRpQIVBgoRA4UOXsjQUQrMEUAt2sFALMEAAI1nAKgW42CoFOFAIAwRpUIWBgs+xCHajmFAIAwRpMIdDdwi4DvDIAEKwUAhQCAMGKLRQCRTZmCLRgKWyAYA2mEOhmZVFBCgGAYA2pEMjoeQoBgGAlWOMtBIy8MtCSGQIAwRpMIdBdBTZmCLCGAECwhlQIyEIh0JFFBQGCNaBo7WrhlYEiCgGAYA2sEChkhgDgkQJOgX3NdIkuU3n6CX+mrlUbvg+AEWswhYCBVwaKdKBa8coAQLAGVAgUUAgAVAGIU5ku0Q8oBABGrIxY4y0ETCyFXaSOak0hABCswRQCPSzMECjilQGAKiAgTXWxhUKgRGdQCACMWCkEKAQAghWbLwRMLIXdWs8QrQDBGoRidZH0QtrRWqgD1FzPsoYAQLAGUgh0t1QIrOIbATbg4ZW3ynWpLlfztD9GE52jMdqG7wNgxEohEG8h0IJCACBYKQTiLgTaUAgAVAEUAvEWAmdTCACMWAMrBAzsjXWAWvI2FkCwBlQIlFh40bWj2upZCgGAKiCQQuC/bBQCZ1EIAIxYgyoEMlYKAV50BcFKsIZSCHSzUgi0oRAAVQAoBOIuBEarLd8HGLEyYg2mECigEAAIVsRbCHRXMTMEAKoAxKmZLrFRCJxJIQBGrIxYgyoECq0UAs8zagUjVgShXJfqCrVMf9R6jsZpO74PEKwIpBC4WD9KvxAo1RkUAqAKoAoIqBDoqqL0V74q1AFqRSEARqwIphD4LxuFwNkUAiBYQSEQdyFwOoUAqAKoAigE4i8E2BsLjFgRTiFgZIbAWRQCIFgRjDJdRCEAUAUgXiXqqmK9qDUUAgAjVsRXCDBDACBYEXshcKF+mH4hUKLTNYpCAFQBVAEBFQIleiH9QuBAteGVATBiBYVAvIUAMwRAsCIcTa0UAiMpBEAVQBUQVCFQmn4hUKQD1ZYZAmDEioAKgSspBACCFfFm2gUWCoFiCgEQrAhIM/2XrlKrtD9Gqc7UBG3P9wGCFRQCcQ6ez6QQAMGKoAqBH6mFhUJgtLbh+wDBCgqBeAuB8RQCIFgRTLReoivSH7WWUgiAYEVQhcCFutxKIbAt3wcIVgRTCFxNIQAQrIg3Wi+2UQicoXGMWkGwIqhCIPXJV8UaqTFEKwhWBFQI8MoAQLAigULAxN5YYxm1gmBFQIXAjy0UAqdpDJOvQLAioEKAGQIAwYqYo/UiCgGAYEX8hcAV6Y9ai3WaxlIIgGBFMKPWS2zMEDhDE7QD3wcIVgQSrRfqxxYKgdM0hpWvQLAiEE11ka60UQiM4zEWCFZQCMRfCBCtIFgRhjIrhcBIjaUQAMGKgAqBqygEAIIV8RYCF1t5ZWAiMwRAsCKYQuB8C4VAiUZoDJtlg2BFMNF6ka5SawuFAPNaQbAinEKAVwYAghUxa2qnEBilNnwfIFgRTCFwtYVC4HRWvgLBioAKgYstFAJNdBbRCoIVFAJxFwIjNYoZAiBYEVAh8JP0C4ESlsIGwYrACgETrwxQCIBgRTia6Dz9WC3S/hjFFAIgWBFYIXC1jUKAla9AsIJCIOZCgK4VBCsoBGIvBEZoNIsKgmBFQIWAgRkCpTqDUSsIVgRUCFxkpxBgR1cQrAipEGhpoRBg20EQrKAQiL0QYOUrEKwIpxC4UFelP2ot1RkaRyEAghUBFQImNsseoTHalu8DBCsCGbVSCAAEK2JWpgtsFAKnayyFAAhWUAjEWwiM1BiiFQQrAioErrHyygCFAAhWhFIInK+r0n/RNVsI8BgLBCvCKQRMbJY9kslXIFgRVCFgYobA6cwQAMEKCoG4o/U0CgEQrAiqELjaSiHAylcgWBFKIXChlRkCFAIgWBFOIXCerky/ECjRSF50BcGKgAqB820UAqdRCIBgRUCFgJlXBiZSCIBgRSCaWikEWAobBCtCKgQusDCvtVin8aIrCFYEo8zODAEKARCsCKcQONdGIXCqxqgt3wcIVgQSrRfoJ2pjoRBgXisIVoRTCFyka9KPVgoBEKwISRN9X1dQCIBgBeIuBK6xUQgwagXBinAKATMzBCYRrSBYEVAhYGCGQLFO5pUBEKwIqhC4Nv1CoIRCAAQrgioELrBRCJxOIQCCFYEVAi0tFAJjKQRAsCKgQsDAGgIlGqmJasf3AYIVgRQCF+onamWhEOBtLBCsCKcQONdGIXAK2w6CYEVAo1YTawhQCIBgRUia6UJdZaEQYHkWEKwIqRA4z04hsB3fBwhWBFIIXGhhDQEKARCsCCtaL7BRCIzUeHZ0BcGKoAqB1KO1WKeyWTYIVgRVCBiZITCBQgAEK4IqBFJ/jEUhAIIVoRUCV9koBIhWEKwIqRBghgAIViDmaD3fQiFQohGMWkGwIqhC4Or0V77KFgK8jQWCFaGMWi+wUwjsyPcBghWBROt5FvbGKtGpGseLriBYEUwhcL6FpbCLdSp7Y4FgRUCj1gttbDs4QpMoBECwIhBNda6NQuAUCgEQrAisEEh91JotBJjXCoIVFAIUAiBYgU0UAt+3UQiczN5YIFgRVCFwjYVCYIQmUQiAYEUwhcAFNgqBkZpMIQCCFRQC8Y5ah1MIgGBFUIXAtRQCIFiBuAuB62wUAlMoBECwIphR63dtFALDKARAsCIYTS0VAoxaQbCCQiDmQoAZAiBYEVYhkPouA8UapnEUAiBYEVAhcI2NNQQYtYJgRUiFgJE1BCYz+QoEK4IpBL5nYdvBYg3TeBYVBMGKYAqB83St2looBJghAIIV4RQC5+ua9DdwoRAAwYrQCoGr1cpCITBB2/N9EKwAhUCc0XqKJqk93wfBCgRSCJxnYUfXEjZwAcGKoAqB7+tqC5tlD6cQIFgBCoH4C4HJFAIEKxBMIXCujULgFAoBghUIqBD4noVozc4Q2IHvg2AFAhm1nqfr0i8ESigECFYgIE31ff0k/XmtJTqZUSvBCgRVCJhY+Wo4XSvBClAIUAiAYAU2XQh8z0YhMJxCgGAFgioErrVRCLBZNsEKhFMInKtRFAIgWIF4C4Hv6moLS2FTCBCsQEiFwLkWdnTNFgIshU2wAqGMWs+jEADBCsQ9ajVSCAzTeFa+Cl0RpwD5VAhI4/Vp2tF6sqSr9CHfCCNWgEIgzkJgCoUAwQoEVQi0SL8QGEohQBUABKOUQgCMWIEkCoHRNgqBqRQCBCsQTCFwto1CoIpCgCoACChaDRUCV+vffCOMWIEgCoHzbRQCp1IIEKxAMEp1tn6S/isDRapis2yCFQioEPi+hXmtRRrOvFaCFQioEDCzqCCFAMEKhDNqPcfCLgMUAgQrEF4hsI2NQmAnvg+CFQikEPi+jW0HT6ZrJViBwAqB1ml/jGJVaSKFAMEKBFQIXGehEBhGIUCwAoEVAqlv4FKik9llgGAFAhq1nq1rrRQCbDtIsAKhjFq/Z2GGQLGGMWolWIGgovVaG4XAJLXj+yBYgUAKgXMsRGuxhlEIEKwAhUDc0cpjLIIVoBBIoBCYSCFAsAKBKLVSCAynECBYgaBGraNtFAK86EqwAuFE63ctzGst0XAKAYIVCKoQMLBea7GGM/mKYAUoBOIvBCazhoAv2KUV2IImOkd1uk7L0h+1SpdrMd8II1aAQiDOaJ1MIUCwAgEVAmOszBCgECBYgVAKgbN1jYWVr4ZpAvNaCVYgmELgu3ZWvtqR74NgBSgE4lNCIUCwAkEVAmfpmvQ3yy7WUI2nECBYgYAKAROPsYZrCoUAwQoEVAiMtVEITKUQIFiBYEatZ1ooBIpUpfFslk2wAhQC8RcCrHxFsALhFALjLBQCp1AIEKxAQKPWM3SthUKgkhkCBCsQWCGwLYUACFYgPk2svDIwXFOJVoIVCGbUeqaFQqBYleyNRbACFAJxR+swXnQlWIGgCoHRNgoBulaCFQhn1HqWhW0Hi1VFIUCwAhQC8SrScAoBghUIqBD4ro1tBykECFYgpFHrmbpObSwUApMoBAhWIJhR6zkabaEQYIYAwQqEVgiY2NGVQoBgBUIqBEZRCBCsAOIuBMbYKASmame+jzROPYBEojWja/Vp2qPWYSrUD/Uh3wgjViCIQuAsG11rpSarHd8HwQoEMmo9W2O0XfrRSiFAFQCEFa2yUAgMVUY/ohBgxApQCMQZrVVslk2wAkGNWkdbWFRwKIUAVQAQVLRGuk6fpT9qFYUAI1YgmGg9R6MoBAhWAPFGq5FdBigECFYgpGg9S9fYWAp7EqNWghUIaNRqZoYAy7MQrEA40TrWxraDFAIEK0AhEKsiVWoiL7oSrEAgsntjGdjAZaimUQgQrACFQNzROp1CgGAFghm1nmmjEKigECBYAQqBJAoB9sYiWAEKgdijlUKAYAXCKQSutVAIDOGVAYIVCChajeyNVaWpFAIEK0AhQCFAsALY1Kj1DAoBghVAwIUAo1aCFQinEDAy+YpoJViBcEatZ+o6CgGCFQCFAAhWgEKgfoUAMwQIViCkQmCUjTUEJlMIEKxAMNF6toV5rUWq1DTtwvdBsAKBFALn2CgEeBuLYAVCKwTaWCgE2CybYAVCKgTGaDsKAYIVQLyFwGgKAYIVQNyFgIHNsotUoakUAgQrEEy0nmWjEBhCIdDwkwbAbCFwtjK6Rp+mXwgU6jJ9wDfCiBUIZtRKIUCwAog5WsfaKASmUwhQBQDBFAJnSRYKgUpldJn+zTfCiBUIYtR6poW3sbKPsdrzfRCsQCCj1rNtFAKVmq5d+T6oAoBgRq1R+oVAkYZIFAKMWIGAonWslUKAt7EIViCUQuAsjaMQoAoAEO+o9QzV6Sf6LO3cqFBEIcCIFQioEBhnYSnsIZpOIUCwAhQCcUfrDAoBqgAgmFHr6aq1UAgMVh2FACNWgEIg/kKAHV0JVoBCIPZopRCgCgAoBCgEGLECoBAgWAG4KwTGUwgQrADiHbWeplEWlsIerMnMayVYgYAKgbHsjUWwAoi7EGCGAMEKIMxCYBCFAMEKUAhQCBCsADZfCBiZfJXn0UqwAkEVAmNsFAJT87sQIFiBwAqBcdo+/WityO/HWAQrEFy0jrVQCFTkc9dKsALBRevpFAIEK4B4lVAIEKwAKAQIVgBeFAJjKQQIVgDxFgJnaLyVQmA3ghVAIKPWM6wUAlPzqxAgWIHgC4FtLBQC0/KpECBYgeALARMzBAZrRv4UAux5BeRBIZDR1fok/WjN6Ad6nxErgEAKgXEWCoHBmp4fhQDBCuTJqNXADIHCfCkEqAKAvBm1ikKAESuAuKN1vIXJV3lQCBCsAIWA+0JgZtiFAFUAkEdKdJoiC4XAIEmX6gNGrAAoBOKM1pnamWAFEEwhMIFXBqgCAMRbCIxUXfqFQKEGqU4/0L8ZsQIIphAwsFl2hWaEOEOAYAUoBNKO1uB2GaAKAPK2EBihWhuvDES6LKwZAoxYAQqB9Eet08OaIUCwAhQCNqI1oEKAKgCgEKAQYMQKIO5CwMyoNZBCgGAFiFadbmXbwUBmCBCsAFSikTa2HRykKSGMWglWAMouz2Jk1DrN/x1dCVYA1gqBab4XAswKAPCVQqBOV2tp2qk0WJF+6PMuA4xYAVgsBLye10qwAvhGIWBkUUGPCwGqAADfGLWOUJ2uSr8QGKRIl/lZCDBiBfCtaB2p8drBwqjV00KAYAWwkULgNBvLswz2c/IVwQpgo9E6wsreWNP8e2WAYAWwyUJgAoUAwQog3lHrSAoBghUAhQDBCsB8IXCalULAo82ymccKYAvROlIFulIfpz9qlS7TewQrgEAKgUhXWnhlQPqBD68MUAUAqNeodaLapT8QHORHIcCIFUC9onWEMrrCwqg1o0utj1oZsQKodyEw0cYMgRnWZwgQrAAaUAhMSr8QKNQgzdTuVAEAAonWU208xhooWS4EGLECaFAhMFITLbyNNUgz7RYCBCuABhcCEykEqAIABFgIFNotBBixAqAQIFgB2CgEmCFAFQAg9kKgTlelvYZAthD4ga01BBixAtiKUetECzu6DtIMW+u1EqwAtiJaR1iZITDDUiFAFQBgKwuBKP1FBY0VAoxYAcQwajVQCAy0UwgQrABiiVYDuwwMtDJDgCoAQAzReopqdVX6awgMkHRp+oUAI1YAMSjVSE2wUAgM0Iz0N8smWAHEFK2n2YjWgenPEKAKABBbITBCdVYKgR/oXUasAIKIVkOFwG4EK4BgCoHxNqJ1enrRShUAIPZRa6Sr035lINVCgBErgASidbyFea2pFQIEK4AECoGReV0IUAUASCRaRyhKf1HBlAoBRqwAEisEJlgpBHZ3fVAASChaRyiT/spX2VHrZXqHESuAQAqBCRb2xhqg6S5fdCVYAeRHIeBw5SuqAAD5UQj0V+SqEGDECiB/CgFHK18RrACcFAIG9sZyVghQBQBwEq2nKqMr0t8bq7+kS5Oe10qwwol1WstJyHuDtVLXqDr9UWvi0UqwwolHNUt1nIa8t1aF6X+IQg2Q9EO9TbDCc+31mpWdiYHECwEeXsGJPdRHGU4DrMg+xkpshgDBCieaqFJtOA2wNGodoFnqQLDCa93UnZMAW9HaT9OSGbUSrHCktarUhNMAa4XArCSilWCFIxkdrz05DbA2au2fRCFAsMKZHdWXB1iwWAjEvvIVwQqHV/Dg9N8XB75dCPSPuxAgWOHQ/jqGkwCrhcAeBCu81EwVas5pgNVCYDeCFR7K6Ch15DTAZiHQL75XBghWOLW9BqmY0wC7hUAsMwQIVjges/bVTpwG2C0EZsRRCBCscGwPHc9JgO1CYKujlWCFYyWqVCtOAywXAjO3thAgWOFcVx3ESYD1QmCrNnAhWOFca1WqKacBARcCBCucy+g47cVpgPVR61YUAgQrUrCzTrKwRQeQUCFAsCKVa7aCVQPgRyHQqGglWJGKA3QkJwF+jFobUQgQrEhFE1WpjNOAQAsBghWpyOgIdeY0wJdCoEPDlhImWJGSbTWQVQPgx6i1r6Y3bNRKsCLFq3VXTgP8GbU2IFoJVqRmLx3HBQhforWvZtW/EOC6RmpKVKGWnAb4cot1Uv1XviJYkaIerBoAvwqBWfUrBAhWpKiFhqqE0wB/Rq19NUt7bLkQIFiRooyO0d6cBvhVCNRjbyyCFanaWf1ZNQDBFQIEK1JVrEHagdOAwAoBghUpO0CHN+ylFsB8IUCwImVlGsqqAQisECBYkboj1ZGTAB8Lgdnac+O3WwQrUreNBvEACz5G64mbKgQIVqSuQCexagD8LAT6brwQIFhhwF46gUsRPhcCBCvsKdVgteY0wN9CYHeCFQYdpB6cBARTCBCsMKGlqlTKaUAghQDBCiN6fbuoAnwqBL6yNxbBCiPaawCXI3wuBE7S7Fy0ciXDzHU5UNtzGuDzqPUkzcreeBGsMGN/Hc2qAfA9WmeqA8EKQ8pVqeacBvh943WiZmnvIs5EmGq0Rtt696mP0gF60sWBPtBTWs9VgkTUqjfBGqRqTdE6jfVuAtM2GqRnXSRejcbqLa4TJCQiWAO0QpM1WzvoLO3j2SfPqJ9u0r+SP1AHHa7XVMe1gmTQsQY5Wr1eq/Wefq/Iu0/fQSe4eIBVqkq14loBwYp6xupkzdYqSes1T5959/lLVeFm1YCD1I2rBQQr6lkCzNLKL//TK3rCw79Ddx3i4jDNNVTFXDEgWFGvEuDz//znGs3Rau/+Fq1UoaYuDtSbd2hBsGKLsTrpyxIgJ9Jj+rt3f4+MjtNeLg7UXv25/kGwYrMlwCTN/k8JkPNvLfBwuuZO6ufiwmTnbRCs2FIJcMNXSoCcOi3QEg8vykFuXm44UEfyDi0IVmwiVid+owTY4HU95uHfaD8d7eIw5apSM64fEKzYaAlw/bdKgJw1umuT/zu7yjRU5S4OdLQO4AoCwYpvjVanbrQE2OAZvezd3yqjw9TJxYHaajC/ARCs+JrlmqhZmygBcpZqrtZ69zfbXoNU4iLB+2pnriMQrKhnCZBTp9/rHQ8vzP7axcWB9nDzDi0IVngSq1N042ZLgJy39LCH643soV4uEq8JO2+DYMV/SoAJWywBctbpbi337m9YpKFq6eJAB+kgricQrNjIW1ab94Ke8fBv2c3NqgGtVakmXFMgWPO+BJiqG7WmAf8fNZrj4QOs5qpwsVR3Rr3VgasKBCslQANGq5IU6RG94eHF2dvNUt07aQAPsECw5nUJMLFBJUDOB7pPtd79bXdWfznY5KJQg7Ud1xYI1jwuAX7WoBIgZ53u83DVgCINdLNqwL46kqsLBGselwCNfUH1VT3h4VYtB+goF4cpVxU7b4NgpQRosNW6y8Nlr5touMqSP0xGR6kj1xgI1ryL1SmNLAE2eEKvefg3P1QHujjMdhrAVi0gWCkBGuwTzfXwAdY2qnSReAXqr5240kCw5lUJcEMMt/G1ekDvefe3L9SJ2s3FgfbU8VxrIFjzJlYn62f1WhNgy/6phz18gLWnjnOzVcsQN+/QgmCFgRJgdmxLVX+uOVrm3TkoVaWbdVK66WCuOBCseTBanRRLCbDB03rRw/PQQz1cHIZVA0Cw5sNodZJ+GlMJsCGq53m4akC5qlw8wMqot/bmugPBGnSsTqzHMtYNFekPetvDs9HLTeLtopNUyLUHgpUSoIHe1wMePsBqr4EuEq9QFW7eoQXBilRGqzfGXALkrNO9+sS7M1Kk/trBxYH2Z9UAEKwBlwCrEvvvf1lPeHhWDtQxLtb2a6phLt6hBcEK5yVAUqPVrBrNSTC2k9JMlSpP/jAZHcaqASBYgxutTtCNCS+WEulRve7huTlSB7g4zHYaxKoBIFgDi9UbHIwmF2uBh6sGtFGliwu2UP20K9ciCNaASoCfJloC5NRpgRZ7d34yOlG7uDjQXurFLwMEayCj1fGJlwAbvKFHPTxHu6uPiwdYJapk1QAQrIGUADc6fKS0RndrhXdnqYmGqK2LA/XQQVyTIFi9LwEmOyoBciI9rZc8PFPd3CReC1WqhOsSBKvnJcANzrdN+UTzPVw1oJUq1TT5w2RcvUMLghUJjVbHO5kJ8E11ul/veHe2Mjpee7k40E7qz6oBIFi9jdVJW72XVWP9Sw95uGpAO/Vz8QCrWAO0PdcnCFYPLdO4FEqAnPW6R8s9vGQHaTsXB+qoI10kOAhWxDxadTsT4Nte1NMenrf9dKyLxCvTUDXjKgXB6lmsTk6tBMhZoTn6wrszV6YKF6sGSEdof65TEKxelQBjdX1qJUBOpEc8XDUgoyPV2cWB2moID7BAsHo0Wh2fcgmQ877u83DVgO002MU000Kd5GbnbRCsiKUEuMnILfh63aePPRyznqSdXBxoD/XmARYIVk9KgNmplwAbvKq/eHgWO+gEF4dpoiFqwzULgtWLEmC1oU+0Rv9r6vPUT7GGqrWLAx3MqgEgWM3H6iTdbO45/FN6zcNz2cnVqgEVrBoAgtV4CXC9wU1RlmqO1nt3NlupysWqAdJxrBoAgtWs5eZKgJxaPaB3vTufGR2nfVwcqL0G8DsBwWo0Vi2WADn/0CMerhrQXie6mGZapP5u3qEFwYoGlgDjUlnBqr7WeLlqQKEq3KyTcoCbnbdBsKKBJcBPjT95f1oveHhm99fRLg5Trio379CCYEW9Y3Wibk55TYAtW+HlA6xSVarMxYGOcLPzNghW1LsEuNFwCbDBg3rLu7Ob0eHq4uJA26pCRVzNIFhNqNYE8yVAzntaqDrvzvC2bqaZZtRXO3M9g2A1UQJM0k3mS4CcdVqgpR5ewH20q4sDddDxPMACwWogVieYfB1g017WEx5OutpTx7u4jEs1xM07tCBYsZkSYKLR1wE2bYXu8XDVgBJVqpWLA3XXwVzXIFhTHa1O1E/1uXef+zG94eHZ7upm1YBWqnDzDi0IVmyiBLjBqxIgZ4nme/gAq7mGuXmA5WjnbRCsCKIEyIm0QIu9+9QZHeNm1YCd1JdfDAjWlEarPpYAOb6uGtDPxaoBBRqsbbnGQbA6j9XxnpYAOat1t1Z496mLNUjtXBxoPx3DVQ6C1XkJ4PNoNetpveThpz5AR7qYZlqmSlYNAMHq0DKNDyBWpU80T2u9+9RNNVTNkj9MRoerE9c6CFZnJcAET9YE2JI63e/hstdylXjbu9l5GwQrVK1J+lkAo9Wsd/RHDz91W1W4eYDFqgEgWN2UAOO8nWC1MbWa4+Gy1wXqo91cHGhP9WbVABCslAAN9pKe8vBT76E+Li7oIg1VS657EKyJlwBrAvtbrdAcD4uNUg1WGxcHcvQOLQhWSoCgRHpYr3v4ubu7SbwWqlITrn4QrAmVAOODKwFy3tdCD7dqaekm8QrU2807tCBY87IEuCm4EiCnVvd6uOy1dKybdVJ20kkupiCAYM27EmBskCXABq/pcQ8/9Y4a6OYB1mA3O2+DYKUECMoa/a+HD7CKNNDNqgEH6ih+ByBYYy0BJusmfRH83/Np/dXDT72PjnIxzbRUVSx7DYI1xhJgjK4PugTIWaq5Wufdpy5XlZq7OBCrBoBgjW+0Os7ChtartCj5h/a1WujlqgFHukm8bTRExfwiQLDGEKuTdHP6JcAq3aCL9a/kD/RPPerhVi1tNVBFyR+mUH20C78JEKxhlAArNVMT9TctTD7zvtBdqvbue8qon3Z1caC93LxDC4KVEiD50epMTdIKrdVcFxNNn9XzHn5Xu6uPmwdYlWrNLwMEa6Mt10QrJcD0L+d5/VVPJn/AGs3x8A2sEg12k3jd1Y3fBgjWRpcAY3WDlRIgd2++QvckP5U20kP6h4ffWFcd5uIw5RrOAywQrH6XALM0+Ss7/UV6xMVKKe/pfg8fYLXSEJW5OFAv7c0vBARrI0arEyyUACt1vaZp5df+Z0t0X/KZt0736mPvvrWMerlZNaCd+vMrAsHaQJ/ZWBhwpWZp0rce0Ee6V4uTP/grWqTIu2+uvfq7WCelWAO1I78TEKwNsFzjLZYAG7yhR5I/fI3u9nDVgAIN1nYuDnSgjmarFhCs/pUAs79VAuSs0ZyNBm7MHtffPfz+9tExLg7TTENUzq8FBGu9S4Cf2pgJMGmTs/QjPakXk/8QSzTfwwdYTV2tGnCUDuT3AoK1XiXABP3MRgkwRTWb+b9Yqnlam/THqNN9+tC77zCjw9TFxYHaagi/JBCs9SoBDOwOsFKzNlkCbBiz/l7vJf9R/qFHPHyAta0GqsTFgfpoZ341IFi3UAKMtTETYKYm1+NV/bf1x+Q/zGrd4+GqAQXq62bVgA46kQdYIFi3UALclP5T8FWarambLQFyat1k3lN6ycNvcw8d7yLxmqjCzc7bIFg9Ha2Ot1ECzKxnrErSy3o6+Y/0qeYnX+bGrkhD1MrFgbrrYH49IFg3EatmZgJMbsAotNrFRNNID+gdD7/TrjrUxWFaqZKtWkCwbqIEuNlKCbCyQZn3iN5I/oO966LMjV0LVapJ8ofJ6DjtyW8IBOtGRqsGutWVmtWAEiDnfd2v2qQ/2jrN1Wfefa8Z9dS+Lg60o/rzAAsEq8USYJVmN6gEyFmveVqS/Md72cUSsLHbSf1dbNVSoEFu3qEFwepVCZD6I6tVun4LrwNs2mtalPwHrNZcD1cNKNJAbe/iQPu5eYcWBKsno9WxVkqAyY1+83+Nfpf8vwyRHnaxBGzs9tdRLu7Sy1SpFvyeQLB+GatGXl6dtFXzURfpleQ/5gdamHyZG7tSDXex7HXG1c7bIFjNlwAT9XMLJcANDZwJ8G1LNT/57anqvFz2WjrETeJtq4Fs1YK8D9bPNEY/s1ACZHde3Tq1esDFqgF/1589/KbbaoiLxCtQP+1CrCCvgzWYEiDnDT2Y/Op+n+uu5PcwjF2hTtTuLg7UQScQK8jjYM2WACY2tJ4aU1J9obnJL3sd6Sm96uH33UHHu7jci1WhlgQLwUoJkG4JMCOGEmCDZ/RC8h/ayRKwsStVpZt1Uhy9QwuC1ZxlGmOjBJjZqNcBNm2F7kr+AVat7ndR5saum5t1UlqpilUDCNa8LAEm6Bc2SoBpMdeVkR7W28l/9H/qUQ+XvS5XpYtlrzM6VnsTLQRr3pUAo0MsAXLe18LkH2Ct1V0eLnst9dJ3XBxmZ/VzsfM2CFZKgG+OVmfENBPg25k3z8VE0+f0rIfffjsNcpF4hapw8w4tCFZDJUDqD15W6QZNTyzdX9FTyd+n12iu1nn3/Repn3ZwcaB9dSThQrDmTQkwykIJUKPpmpjgtKga3Z38kLxOD+lND6+B/XWsi1UDmmqYi3doQbCaKAFusjITINnZpo+4WCnlPS9XDWimoWru4kCOdt4GwZpyrE7QLRZKgOs1I/F0X6oFyZcB67RASz28Eg7TgS4Osw2rBhCswftUoy0sY12T2COrb96nL9CHyf91XtEiDyddtVGlmwdYfbUbAUOwBmy5jfVWV23VeqsN86YeTj7zVrnYwzABJ2lXF4fZy807tCBYUyoBxlsoAVbqek13tnrJaherBkiP6+8eXhG7qo+LB1jFqnCz8zYI1hRKgFH5VAJs8KReTP4gH2uel8teD9E2Lg7U3c07tCBYUygBbrZRAkx1VALkfOJipZRaLdQHHl4X3dysk9JcQ128QwuC1anPNM5GCTBb07dyd4CGi/QHFyul/MPLVQNaqMLFOikZHePmHVoQrA5LgNEWXl6t0YyYV7Cqr3f0h+Qzb7Xu8XDVgIyOc5N47TWAVQMI1sBKgJ/nZwmQs05ztDz5wzyplzy8PtppgJsHWAPVjpghWIMpAcbqlvQXBlypWSmUABu8rKdc/BM2z8NVAzIa4GadlP11pIsEB8HqpAS4KZ9LgJxqzUn+NET6g97x8CrZ182qAWUaqnKChmANoAQYZ6cEqEn1M0R62MVKKe/q9x4+wCpTpZtVAw538w4tCNZER6tjLOwOUKOZqZYAOR/o/uQnmq7VfH3q4bXiaJ2UthrCAyyC1ftYNVECzNQUEw/La90se/2SnvTwatlOg11MMy1QHzc7b4NgTbAEWJN+CTBb01IuATb4Pz2e/EGqNTf9f84aLKO+2sXFgfZg1QCClRJga0erMwzFqrTGxbLXjsrc2O2mPi4OU6oKNztvg2CNPVbNzASYYmrGfKRFejn5w3yo+5LfwzB2RapUaxcH6qGDmXRFsHpnmcbpFhslgIVHVl+3VAuSn2hap3tdlLmx6+xm1YAWGqJS4oZg9a4EMNCt1mh66hOsNqZW97tYNeB1PebhtdNClW42p+qlvYgbgtWzEuBmC1sEzkjt5dUteVMPJX+fvlp3G/xXZUsy6qV9XRxoRw3kARbBSgkQQgmQs1Zzko/8SE/qFQ+voPbqq6LkD1Ok/m7eoQXBGstolRKgHp7T88kf5GPNT3+RxgYr1CA3ibefevIAi2D1IlZHWSgBVmqGphgtAXKqdXfymVenhXrfw+toP/V0cZhyVbl5hxYE61aWALemP281WwKsMn6yIj2it5I/zFsu9jCMXamrB1isGkCwWveJRtkoAaZpihfPbN7TwuRXDVivu4wP3TfuUHV1cZhtVKFiQodgNVwCjLawgtVKTTdfAuSs1XwXE01f0DMeXk/bqNLFqgHO3qEFwdqoEmC8fmmjBJjh0Svyr+rp5O/TV2hu+t9MI34Gx2s3FwfaXccTOgSr2RLAxLzVqZ6UABvG13clf9rq9JCXqwbsqRNc/BhKNERtiR2C1WQJYGImwDSzrwNs2mP6v+QP8q6LMjd2xapys06Ko523QbA2uARIfa7kKs3WLA/XyVuqBcm/gbVeC/SJhz+Fzurh4jAtNdjFztsgWBtQAlxnowSY4s0jq6+r1UJ9kPxhXtETHp6ccg13sU6Ks523QbDWy2c2ZgKs8rIEyHndxUTTz/W79CfCNSLxerpZNaC9+rNVC8FqJlbHWSgBVmqWZqWf7luRefNc/KOwSK95eHLaqZ+LxCvQAG1L9BCslAA5KzRVk70drWY9qZeSP8gSzdN6705NkQZqRxcHcvQOLQjWLZYAv7BQAkw3telK43yqOckve13r6aoB++sYF+ukNNVQVg0gWFOP1bE2SoCZXs4E+LY/6d3kD/KmHvVw1YCmqlR58ofJ6BB1InwI1pRLgJ/bKAGmeF4C5Lyj37t4gHW3qa2/6utwdXZxmO1U4eIdWhCstkuAGQGUADlrNVefJn+Yp1zsYRi71qp0sex1gfpqV+KHYE3FpzZKgBrN0MwgSoCcl/V08gep1hwP38BytmpAB/Vm2WuCNZ9LAJ/nrW4q8+5x8Q/FH/W2hydnd53o4mdRpKFqRQARrI4t02jdYmN3gOnBlAA5kR52sVLKuy7K3NiVqsLNOilddAgBRLA6LgHG2CgBZmqm+d0BGuND3Z/8qgFrNV9LPTw5XXWwi7v0FqpUEyKIYHVYAlxr43WA8EqAnDrN05LkD/OinvRwzNpCVS4Sz9nO2yBYvywBbk3/XfMwS4AN/q4/J3+Qas3x8v3fXtrbxWHaq5+LKQggWPWJRtuZCbAq4G/+c92jlckf5hEvl73eQQPdPMAa6GbnbeR5sBp6HSDUEiAn0iIXE00/0r0elgGFGqB2Lg50gI5m0hXBmngJMMZGCTBTM1yM5lL2se5NftWASAtclLmx20c9XSReqYa62XkbeRusn2iUbk2/BFih6ZoRdAmQU6f79V7yh3lDj3p4cpppiFq4ONChrBpAsCZcAvzCxkyAaYGXABv8Uw8lf5++Wvd4eUKPcLNqQFtVqpggIlgTKwF+aaMEmJkHJUDOOs1JPvMiLdIrHp6cthrsIvEKdYKbd2iRd8GaLQFS341+hablRbf6Vc/rueQPslTz0q94GiyjE92sk7KH+vi4DT2MB6uhNQHypwTIqdbdyf+LVqf7vVz2ened5OYB1hA3O28jj4I1WwKkPlpdGezLq1vKvEf0j+QP87Ye9PDkFGuQm8Tr5mbnbeRNsC7VdTZKgKmanmclQM67eiD51f3W6x4vl73uosNcHKZcw1j2mmCNtQT4hY3XAUJ+eXXz1mmui5VSXnSxBGzsWqrSzTTTY7UPYUSwxlYC3GajBJiVhyXABn/VU8kfpFpz05/10WAZHavvuDhQO/XnARbBGksJcK2NEmBK3pYAOav1u+Qzr04PeblqwI7qr8LkD1OkAW523kbQwWqkBKjJ6xJgg8f1t+QP8p7u93KrlsHawcWBDnDzDi0CDtZlGqvbLWxoPSOQDa231sda4OIB1r36xMOT8x0d4+IwZRriYudtBBusS3WNbkm/b6ME2KBWC11MNH1Vf/Hw5DRRlZq7ONCR6silSLA2ugS41sJeVjWaEtCG1lvvdT2c/KoBn+t3Hi57ndFh6ubiQG1U5aLORYDBukzjdIeNEuB6L5e2Ty7z5rl46+xJvebhyWmrgW6mmZ6gnbkUCdZGjFav0y8slACTeWS1kcx7KfmDLNE8rffwR3KSdndxIEfv0CKoYP1UoyysCVCjKcTqRm8m7kk+82q10MUSsLHroBNc/FRKNUTbcCkSrA3wmcZa2cuKEmDjHtS7yR/kTT3m4VYtRapQKxcH6qqDuRAJVt9KgGpKgM14Rw8kn3lrdDerBmxaS1WpKZciwVrvEsDI6wAziNVNWutm1YCn9aKHJ6e5hrpIvIx6u9l5G94H62caq9soAXzwsouVUqo118MHWBkdpX1dHGgH9ecBFsFajxLgWhsrWFEC1Cfz7kn+TbRIf9JbHp6c9hqgIhe/yEHankuRYN3CaHWUhdcBVlIC1DPzHnaxUsq7ekB13p2cIg1UOxcH2lfHcikSrJv1GwtrAqzQdM2mBKiXj7Qw+QdYaz1dNWBfHeXiLr2pq5234W2wvm9jJgAvr9Z/zDpfS5I/zEt60sNJV6UarmbJHyajw9WFS5FgtWylpuXVhtZb7+96zMVNxD0eLnstHeIm8bbTYLZqIVjtWqFplAAN9LnmuBjfP6Y3PDw5bTRExS7GrCdpFy5FgtUmXgdoXBnwhF5O/jCLNd/DB1gFOkEdXBxod53ApUiwWi0BZlECNMLHmp/8E8da3aePPDw5HdTHxY+mSFVu3qEFwdqwEmCqZrM7QKPU6X59kPxh3vBy1YASVaitiwN10qFcigSrvRKAeauN95YeTP4gq3SPiyVgY9dVh7g4TEtVudl5GwQrJYAb63W3i8xbpFc9PDnlqlJp8ofJ6Fjtw6VIsNoZrU6hBNhqL+rZ5A/yieZpnYcnp6ebxNtJfV28QwuClRLA3Xm8O/mJppEe8HLZ6x00yMXmVIWqYNUAgtVKCXC9VvG1brU6Pax/JH+Yf+lPHp6cIvXXji4OtI+O5lIkWG2UAMRqPN7VA6pN+iBrNUfLPDw5++pYF6sGNNFQF+/QgmClBHBlvZtlr190sQRs7MpU5WadlENZNYBgTbcEmE4JELO/6qnkD7Jcc7185/gwdXRxmG1YNYBgTXe0OotYjdnn+l8XD7AeclHmxq61Kt0se32iduNSJFgpAULyF/0t+YO8r/uTL3MT4Cjx9nTzDi0I1o2VAMxbTcJS3Zv89lS1mu/lste7qo+LB1jFqlBrLkWC1fVodZJmUgIkZL0Wulg14DX9xcOTU6IKbeviQI7eoQXB+vVY5eXV5Lyuh5Nf3W+1fuflLUc3He5izFquYS7eoQXBuqEEuIESIFFrNDf59jrSk/qrhyenuQarafKHyegofYdLkWB1NVqdSAngwFN6KfmDLNF8D1cNyKi3m8Rrr4Eu3qEFwbqCEsCR5brbxQOshXrfw5Ozgwa5KAOKNFDtuRQJ1uRLgGm6kb2snIj0kN5J/jBvernsdUb93ayTsp+OdJHgyOdgzZYAjFZdeVf3J/8Aa63u8nLZ6++ot4vEa6qhKudSJFgpAcLxhZtVA57V8x6eHGerBhyuzlyKBGtSaigBUvCynkn+Pr3a02WvD3GzTkprVfAAi2BN6rc3mdFqKncJ9yT/j1md/qR/enhyttUQF9NMC9THzc7byLdgrdEUzSBWU/Gw3kj+IE6WgI1dRie5WTVgd1YNIFiTiNXpup4SICVLtDD5MmCt7tWnHp6cXXW8i8OUapCbnbeRP8Farcmazmg1NbW6Vx8lf5iX9JSHk64KVeVmnZTuOoRJVwRrnKPVqZQAKXtdjyafeSt1l77w8OR00hEuDtNCVWrCpUiwxmOFpmk2JUDKVrtYNUD6s1738OQ01xCVuThQT+3NpUiwxlUCMFpNX6Qn9Eryh1mi+V4+wDpW+7s4UDsN4gEWwRrHveFUJlgZsdTFSinrtVAfenhydlR/F1u1FKq/2nEpEqxbWwJMpQQwNGZ9wMVKKa97uWpAoQZoBxcH2kc9eYBFsG5dCTCJEsCUt/XH5DNvle7xctWAfXWsi8M0U6Wbd2gRZrCu1FTNIlZNWas5qk7+MIv0qocnp0RD1czFgQ5XJy5FgpUSICQv6ZnkD/KZ5iW/BGwCDlI3F4dpq8Eq5lIkWCkBwrFMc5L/5y7SA3rXw5PTVkNUkvxhMurr5h1ahBWslAB2RXpQ/0j+MO+4KHMT+DGd4GadlF11Ag+wCNaGjlanUAIY9r5+n/xE0y80T595eHI66AQXP6kSVagNlyLBSgkQjlrN1SfJH+YFPe3hySlWpZt1UrrocC5FgrUhJcD17Lxq3Gt6IvmDLNdcL29buugQF4dpqQo379DC/2Ct1mTN1mq+FONW667kvyVHZW7syjTUxbLXGfXSPlyKBGv9SgBeXvVBpCf01+QP828tTH4PwwQS7xjt5+JAO6o/W7UQrFsuAaZRAnhjiRYkv2pAne51UebGbgcNcLFqQIEGutl5G/4Ga7UmaxYlgDdqtVAfJH+Y/9OfvfxJHaaWLg60j3pyKRKsm4vVicwE8MzresTFqgF3e3ZZRFqsOzTKzVoHTTSUVQMI1s2VADcyWvXMWs1JftnrSItclLmxWao7dLIu0lNutvHO6BB15lIkWDc+Wp2kWXSrHnpGLyR/kMUuloCNQZ0W61caogv1mMsxwjaqcDEFAY0bFqT3Z7l+zGw8b/9JPl9rk79G9o3ejmyriz6Kbo0Oi5qk8Qt6U9/hUrSoKMVjUwL4rE4P6e3kf9b/1KPa3fBp+ET36U49m9ZlvLt6600Pl1VgxJrgaPUqlXP6PVaiGapN/ko5PlphcqRaG30U3R4dGZVFqd71/dnNO7TwI1iX68dqysn33BFanPy10jp6yOTt/y3RoVFpuqEaKdIK9edCtNiUpVcCsIKV717Ws8kfpFrztNbUXzv79P8SPaUv0v8w5apQEy5FRqyRllECBGOEVid/xewV/c3M7f+H0e3REWnf/n/9z7vqyoXIiJU1AULyqF5P/iDv6IHkl4CtxwhksW7TEJ2rJ2w9cW2vgak+hIaBYK2hBAjKEt2X/Eop6zRfn6Ycqkt1u4Zbuf3/ukL1c7PzNqxWAct0JSVAYLrr/eSvnKbR/FRv/39p7fb/63/WaARbteRvsDITIERl+pXqkr96To7WpPb0/zALT/83/+c+Biz5GqzVutrNtutwbJCqk79+2kcvOQ/VJdEvo6Msj1Q3/PlYR3Ah5mPHulwTNZs1AYL0hF5xUebOd/gAq04f6TYN0YV63I9XA9uqUsVcivk2Yq2mBAhYRpdqXfJXUdfoHYe3/4fbv/3/+p+/s2pAvgVrta6mAQraPnor+euoLLojqnNw+39r+q+pNubPF7rY4Gb2BGuCMwGuIFYDV6qfuniA1TdanujT/39Ht0RHRE39C9Xsn8e1LZdivgRrta6gBMgDvfWpi1UDHk9spPphdKt/t/9f/7OSVQPyJViXUwLkiTZ6IPnoyESXROsTGKkuiW61PU+1vn/uZNnrfAjWZfoxE6zyREZnu1g14DvRW7Hf/v/C59v/r/95n61awg/WFZQAeWUXvZp8dJRGN8b2ACuI2/+v/1mn61TIpWhBUs8RqzWJNQHyygd6IPlVA76IadWAOi3RbarSxVpk793/xg+RqlXMbNaQR6zLdDklQN45yMWy162iBTHc/v88OjyU2//snzot0f+oN7+6kIOVEiA/NdPdLh5gnRGt3sqN/44I6fY/Up0+1X8TqqEH63JdxVeclzIappXJB8lO0auNHKkujm6JDgvh6f9XQ3Wpfqvj1JzLL+xgXaYfEat5a0c9mXyYFETjGvwAK3v7n9IW1Une/v+WkWo+BCslQH4r1BVam3yk9IiWNOL2P6hQjfSp/lvHEar5EKzLKAHy3v56O/lQKY9+14AtqgO9/e/N7X9+BOsy/VBlnM48V6xbk181IBNVRSvqdft/c3RoeLf/v1Evfmn5Eqw1lACQJPXRiuQDpl20qB5L/3H7D7+DdZmu5OuGJKmNHnHxAOvyaO1m9qgK9Pa/F7f/+RSslADYoEDn6Yvko2af6O2NhuoH0c3RIaHNU12iX3P7n2/BWqMrKQHwFXvr/5KPm+Lolm/F6uIwb///h9v//AtWSgB8U4mmaX3ykXN8VP2N2/9Dw3pNtVZL9Vsdy+1//gUrJQA25jAXqwa0iR78ytP/g8O7/b9TvbgXzMdgrdGVxCo2okwLXDzAOj/6PFoc0nqq3P4TrFqmK/jqsQmnak3yAbRbdF2Yt/89uf3P12Bdpsu4TcEmtdeLLoIoE9rt/690LL+r/A3WFZQA2KwijXbxAIvbf4QTrJ+xlxW2qLveJS7refv/sX6rnmy7md/BSgmA+miq25NfNSCY2/8mXDD5HawrdAUlAOqlv6qJzs2G6if6bx3HSJVgpQRA/bXR48TnZm7/f6OeKleGCyXfg3WZfkgJgAa4hAdYm7z978lviWCNFKmaEgANtI/+RZB+6/b/t+rN7T/BmisB2NAaDVWqn/EA6yu3/0u4/SdYKQGw9XppKZGqSHX6mNt/gvWbG1rz8ioap7UWEqpaqt9w+0+wfrMEYENrNFZGZ2g1t/9qxu0/wfr10SolALbGTno1z2//eeRLsH4rVpm3iq1ToIl5+ACrTkv1a27/CdaNlwA/JFax1Q7Skjy7/V+sX3P7T7BuarT6I0oAxKBcd+XVSPVObv+hTU6wogRAPDIappo86VTvVC9u/7GpYP1Ml/FvLmLTTouCD9XF+rWO4VeDTQcrJQDiVaDLtTbw239CFZsN1mW8vIrY7RfoqgHZKVXc/mMLwfqZfsC/vIhdsW4JMFQ/0q91DHd32FKwVlMCICEnaEVgq1Tx9B/1ClZWsEJy2urhwLZT4fYf9QjWz3Qp//4iMQU6X2uCuP2/k9t/1DdYq/UjNjRDovbSa9z+I5+ClRIAySvWNG+3aqn9cjsVbv9R72ClBIAbh3q5akCdPtIdOprbfzTEcl1OCQAnmule72KV2380yvcoAeBIRqd49ACrVkt0h47h9h+NUcgpgDPt9YI3t/+36yju5QDYV6RRWufB7f+vdSy3/wB80VXvmn/6fxT1GACfNNHtRrdqqdNHuo3bfwA+6m9w1YA6bv8B+KyNHuf2HwDilNHFZh5g1WmxbtfRKuVrAeC3ffRPI7f/v1UvRqoAQlCqG1Sb8u3/x7pTRzP5H0A4eurjVNdTvV09efoPICwtdX9qG//9htt/AGE6Q6tTePp/p44mVAGEaie9ksLtP0v/AQhYocY7egOrTh/r1zqWkSqA8B2kj7j9B4A4let/Eh2zZm//2fgPQB7JqCqxVQPq9LHu5PYfQP7ZXosSuf1frF/paBZUAZCfY9bLY141oE4f6w5u/wHks/30r1g71V+pJ7f/APJbqX4R0+3/R/qVjuL2HwCkE7Sc238AiFNbPbjVW1Rz+w8AX1Ggc/X5Vt3+M1IFgG/ooL81IlaX6g6mVAHAxhVpWoOWva798o0qbv8BYJMO1ZJ6P6j6UHewRTUAbEm55nP7DwBxyuiULSx7XavFuo3bfwCov/Z6dgu3/0dy+w8ADVGkazexasAn3P4DQON01jsbvf1nkWoAaKRS3f6VZa/r9KFu05Eq5cQAQOP1+8+y19z+A0As2urxL2//j+L2HwDiUKCLNV/H8fQf/vt/qGyTprOorWQAAAATdEVYdEF1dGhvcgBoZWxsb2NhdGZvb2Tu3Ym1AAAAWHRFWHRDb3B5cmlnaHQAQ0MwIFB1YmxpYyBEb21haW4gRGVkaWNhdGlvbiBodHRwOi8vY3JlYXRpdmVjb21tb25zLm9yZy9wdWJsaWNkb21haW4vemVyby8xLjAvxuO9+QAAACF0RVh0Q3JlYXRpb24gVGltZQAyMDExLTEyLTIwVDA0OjMwOjA0g/yRSQAAACV0RVh0ZGF0ZTpjcmVhdGUAMjAxNi0wOC0yNFQxMjowOToxMiswMDowMFtXqsoAAAAldEVYdGRhdGU6bW9kaWZ5ADIwMTYtMDgtMjRUMTI6MDk6MTErMDA6MDAb4gjrAAAAZnRFWHREZXNjcmlwdGlvbgBBIHBpeGVsLWFydCBzdHlsZSBhcnJvdyBtb3VzZSBjdXJzb3IuIE1hZGUgdXAgb2YgaW5kaXZpZHVhbCBzcXVhcmVzLCBmb3IgZWFzeSBtYW5pcHVsYXRpb24pDv0aAAAAGXRFWHRTb2Z0d2FyZQB3d3cuaW5rc2NhcGUub3Jnm+48GgAAAFF0RVh0U291cmNlAGh0dHBzOi8vb3BlbmNsaXBhcnQub3JnL2RldGFpbC8xNjYzNTYvbW91c2UtY3Vyc29yLS0tYXJyb3ctYnktaGVsbG9jYXRmb29k1REt4QAAAABJRU5ErkJggg==;" vertex="1" parent="1">
          <mxGeometry x="723.28" y="274" width="13.36" height="20" as="geometry" />
        </mxCell>
        <mxCell id="SR3Ab0r8PhmCPcxvf1HX-16" value="" style="html=1;whiteSpace=wrap;aspect=fixed;shape=isoRectangle;" vertex="1" parent="1">
          <mxGeometry x="686" y="281" width="50" height="30" as="geometry" />
        </mxCell>
        <mxCell id="SR3Ab0r8PhmCPcxvf1HX-15" value="&lt;div&gt;My space&lt;/div&gt;&lt;div&gt;&lt;br&gt;&lt;/div&gt;&lt;div&gt;Profile&lt;br&gt;&lt;/div&gt;" style="rounded=1;whiteSpace=wrap;html=1;" vertex="1" parent="1">
          <mxGeometry x="616" y="291" width="120" height="60" as="geometry" />
        </mxCell>
        <mxCell id="SR3Ab0r8PhmCPcxvf1HX-18" value="" style="rounded=0;whiteSpace=wrap;html=1;" vertex="1" parent="1">
          <mxGeometry x="30" y="360" width="710" height="460" as="geometry" />
        </mxCell>
        <mxCell id="SR3Ab0r8PhmCPcxvf1HX-19" value="" style="rounded=0;whiteSpace=wrap;html=1;fillColor=#808080;" vertex="1" parent="1">
          <mxGeometry x="30" y="360" width="710" height="30" as="geometry" />
        </mxCell>
        <mxCell id="SR3Ab0r8PhmCPcxvf1HX-20" value="David " style="text;html=1;align=center;verticalAlign=middle;whiteSpace=wrap;rounded=0;fontColor=#FFFFFF;" vertex="1" parent="1">
          <mxGeometry x="680" y="360" width="60" height="30" as="geometry" />
        </mxCell>
        <mxCell id="SR3Ab0r8PhmCPcxvf1HX-21" value="Log Out" style="text;html=1;align=center;verticalAlign=middle;whiteSpace=wrap;rounded=0;fontColor=#FFFFFF;" vertex="1" parent="1">
          <mxGeometry x="630" y="360" width="60" height="30" as="geometry" />
        </mxCell>
        <mxCell id="SR3Ab0r8PhmCPcxvf1HX-22" value="&lt;div&gt;ID&lt;/div&gt;&lt;div&gt;&lt;br&gt;&lt;/div&gt;&lt;div&gt;&lt;br&gt;&lt;/div&gt;&lt;div&gt;NAME&lt;/div&gt;&lt;div&gt;&lt;br&gt;&lt;/div&gt;&lt;div&gt;&lt;br&gt;&lt;/div&gt;&lt;div&gt;&lt;br&gt;&lt;/div&gt;&lt;div&gt;EMAIL&lt;br&gt;&lt;/div&gt;" style="rounded=1;whiteSpace=wrap;html=1;" vertex="1" parent="1">
          <mxGeometry x="50" y="420" width="220" height="380" as="geometry" />
        </mxCell>
        <mxCell id="SR3Ab0r8PhmCPcxvf1HX-23" value="PROFILE" style="text;html=1;strokeColor=none;fillColor=none;align=center;verticalAlign=middle;whiteSpace=wrap;rounded=0;fontSize=31;" vertex="1" parent="1">
          <mxGeometry x="130" y="430" width="60" height="30" as="geometry" />
        </mxCell>
        <mxCell id="SR3Ab0r8PhmCPcxvf1HX-24" value="" style="rounded=1;whiteSpace=wrap;html=1;" vertex="1" parent="1">
          <mxGeometry x="290" y="420" width="420" height="380" as="geometry" />
        </mxCell>
        <mxCell id="SR3Ab0r8PhmCPcxvf1HX-26" value="DATASETS" style="text;html=1;strokeColor=none;fillColor=none;align=center;verticalAlign=middle;whiteSpace=wrap;rounded=0;fontSize=31;" vertex="1" parent="1">
          <mxGeometry x="470" y="430" width="60" height="30" as="geometry" />
        </mxCell>
        <mxCell id="SR3Ab0r8PhmCPcxvf1HX-40" value="" style="shape=table;startSize=0;container=1;collapsible=0;childLayout=tableLayout;fontSize=16;" vertex="1" parent="1">
          <mxGeometry x="320" y="480" width="350" height="100" as="geometry" />
        </mxCell>
        <mxCell id="SR3Ab0r8PhmCPcxvf1HX-41" value="" style="shape=tableRow;horizontal=0;startSize=0;swimlaneHead=0;swimlaneBody=0;strokeColor=inherit;top=0;left=0;bottom=0;right=0;collapsible=0;dropTarget=0;fillColor=none;points=[[0,0.5],[1,0.5]];portConstraint=eastwest;fontSize=16;" vertex="1" parent="SR3Ab0r8PhmCPcxvf1HX-40">
          <mxGeometry width="350" height="33" as="geometry" />
        </mxCell>
        <mxCell id="SR3Ab0r8PhmCPcxvf1HX-42" value="example.arff" style="shape=partialRectangle;html=1;whiteSpace=wrap;connectable=0;strokeColor=inherit;overflow=hidden;fillColor=none;top=0;left=0;bottom=0;right=0;pointerEvents=1;fontSize=16;" vertex="1" parent="SR3Ab0r8PhmCPcxvf1HX-41">
          <mxGeometry width="117" height="33" as="geometry">
            <mxRectangle width="117" height="33" as="alternateBounds" />
          </mxGeometry>
        </mxCell>
        <mxCell id="SR3Ab0r8PhmCPcxvf1HX-43" value="2023/01/02" style="shape=partialRectangle;html=1;whiteSpace=wrap;connectable=0;strokeColor=inherit;overflow=hidden;fillColor=none;top=0;left=0;bottom=0;right=0;pointerEvents=1;fontSize=16;" vertex="1" parent="SR3Ab0r8PhmCPcxvf1HX-41">
          <mxGeometry x="117" width="116" height="33" as="geometry">
            <mxRectangle width="116" height="33" as="alternateBounds" />
          </mxGeometry>
        </mxCell>
        <mxCell id="SR3Ab0r8PhmCPcxvf1HX-44" value="" style="shape=partialRectangle;html=1;whiteSpace=wrap;connectable=0;strokeColor=inherit;overflow=hidden;fillColor=none;top=0;left=0;bottom=0;right=0;pointerEvents=1;fontSize=16;" vertex="1" parent="SR3Ab0r8PhmCPcxvf1HX-41">
          <mxGeometry x="233" width="117" height="33" as="geometry">
            <mxRectangle width="117" height="33" as="alternateBounds" />
          </mxGeometry>
        </mxCell>
        <mxCell id="SR3Ab0r8PhmCPcxvf1HX-45" value="" style="shape=tableRow;horizontal=0;startSize=0;swimlaneHead=0;swimlaneBody=0;strokeColor=inherit;top=0;left=0;bottom=0;right=0;collapsible=0;dropTarget=0;fillColor=none;points=[[0,0.5],[1,0.5]];portConstraint=eastwest;fontSize=16;" vertex="1" parent="SR3Ab0r8PhmCPcxvf1HX-40">
          <mxGeometry y="33" width="350" height="34" as="geometry" />
        </mxCell>
        <mxCell id="SR3Ab0r8PhmCPcxvf1HX-46" value="" style="shape=partialRectangle;html=1;whiteSpace=wrap;connectable=0;strokeColor=inherit;overflow=hidden;fillColor=none;top=0;left=0;bottom=0;right=0;pointerEvents=1;fontSize=16;" vertex="1" parent="SR3Ab0r8PhmCPcxvf1HX-45">
          <mxGeometry width="117" height="34" as="geometry">
            <mxRectangle width="117" height="34" as="alternateBounds" />
          </mxGeometry>
        </mxCell>
        <mxCell id="SR3Ab0r8PhmCPcxvf1HX-47" value="" style="shape=partialRectangle;html=1;whiteSpace=wrap;connectable=0;strokeColor=inherit;overflow=hidden;fillColor=none;top=0;left=0;bottom=0;right=0;pointerEvents=1;fontSize=16;" vertex="1" parent="SR3Ab0r8PhmCPcxvf1HX-45">
          <mxGeometry x="117" width="116" height="34" as="geometry">
            <mxRectangle width="116" height="34" as="alternateBounds" />
          </mxGeometry>
        </mxCell>
        <mxCell id="SR3Ab0r8PhmCPcxvf1HX-48" value="" style="shape=partialRectangle;html=1;whiteSpace=wrap;connectable=0;strokeColor=inherit;overflow=hidden;fillColor=none;top=0;left=0;bottom=0;right=0;pointerEvents=1;fontSize=16;" vertex="1" parent="SR3Ab0r8PhmCPcxvf1HX-45">
          <mxGeometry x="233" width="117" height="34" as="geometry">
            <mxRectangle width="117" height="34" as="alternateBounds" />
          </mxGeometry>
        </mxCell>
        <mxCell id="SR3Ab0r8PhmCPcxvf1HX-49" value="" style="shape=tableRow;horizontal=0;startSize=0;swimlaneHead=0;swimlaneBody=0;strokeColor=inherit;top=0;left=0;bottom=0;right=0;collapsible=0;dropTarget=0;fillColor=none;points=[[0,0.5],[1,0.5]];portConstraint=eastwest;fontSize=16;" vertex="1" parent="SR3Ab0r8PhmCPcxvf1HX-40">
          <mxGeometry y="67" width="350" height="33" as="geometry" />
        </mxCell>
        <mxCell id="SR3Ab0r8PhmCPcxvf1HX-50" value="" style="shape=partialRectangle;html=1;whiteSpace=wrap;connectable=0;strokeColor=inherit;overflow=hidden;fillColor=none;top=0;left=0;bottom=0;right=0;pointerEvents=1;fontSize=16;" vertex="1" parent="SR3Ab0r8PhmCPcxvf1HX-49">
          <mxGeometry width="117" height="33" as="geometry">
            <mxRectangle width="117" height="33" as="alternateBounds" />
          </mxGeometry>
        </mxCell>
        <mxCell id="SR3Ab0r8PhmCPcxvf1HX-51" value="" style="shape=partialRectangle;html=1;whiteSpace=wrap;connectable=0;strokeColor=inherit;overflow=hidden;fillColor=none;top=0;left=0;bottom=0;right=0;pointerEvents=1;fontSize=16;" vertex="1" parent="SR3Ab0r8PhmCPcxvf1HX-49">
          <mxGeometry x="117" width="116" height="33" as="geometry">
            <mxRectangle width="116" height="33" as="alternateBounds" />
          </mxGeometry>
        </mxCell>
        <mxCell id="SR3Ab0r8PhmCPcxvf1HX-52" value="" style="shape=partialRectangle;html=1;whiteSpace=wrap;connectable=0;strokeColor=inherit;overflow=hidden;fillColor=none;top=0;left=0;bottom=0;right=0;pointerEvents=1;fontSize=16;" vertex="1" parent="SR3Ab0r8PhmCPcxvf1HX-49">
          <mxGeometry x="233" width="117" height="33" as="geometry">
            <mxRectangle width="117" height="33" as="alternateBounds" />
          </mxGeometry>
        </mxCell>
        <mxCell id="SR3Ab0r8PhmCPcxvf1HX-53" value="RUN" style="rounded=1;fillColor=#d5e8d4;strokeColor=#82b366;html=1;whiteSpace=wrap;align=center;verticalAlign=middle;fontStyle=0;fontSize=12;sketch=0;" vertex="1" parent="1">
          <mxGeometry x="580" y="482" width="64" height="28" as="geometry" />
        </mxCell>
        <mxCell id="SR3Ab0r8PhmCPcxvf1HX-68" value="RUN HISTORY" style="text;html=1;strokeColor=none;fillColor=none;align=center;verticalAlign=middle;whiteSpace=wrap;rounded=0;fontSize=31;" vertex="1" parent="1">
          <mxGeometry x="340" y="610" width="310" height="30" as="geometry" />
        </mxCell>
        <mxCell id="SR3Ab0r8PhmCPcxvf1HX-70" value="" style="shape=partialRectangle;html=1;whiteSpace=wrap;connectable=0;strokeColor=inherit;overflow=hidden;fillColor=none;top=0;left=0;bottom=0;right=0;pointerEvents=1;fontSize=16;" vertex="1" parent="1">
          <mxGeometry x="590" y="668" width="80" height="33" as="geometry">
            <mxRectangle width="90" height="33" as="alternateBounds" />
          </mxGeometry>
        </mxCell>
        <mxCell id="SR3Ab0r8PhmCPcxvf1HX-71" value="" style="shape=partialRectangle;html=1;whiteSpace=wrap;connectable=0;strokeColor=inherit;overflow=hidden;fillColor=none;top=0;left=0;bottom=0;right=0;pointerEvents=1;fontSize=16;" vertex="1" parent="1">
          <mxGeometry x="590" y="701" width="90" height="34" as="geometry">
            <mxRectangle width="90" height="34" as="alternateBounds" />
          </mxGeometry>
        </mxCell>
        <mxCell id="SR3Ab0r8PhmCPcxvf1HX-72" value="" style="shape=partialRectangle;html=1;whiteSpace=wrap;connectable=0;strokeColor=inherit;overflow=hidden;fillColor=none;top=0;left=0;bottom=0;right=0;pointerEvents=1;fontSize=16;" vertex="1" parent="1">
          <mxGeometry x="590" y="735" width="90" height="33" as="geometry">
            <mxRectangle width="90" height="33" as="alternateBounds" />
          </mxGeometry>
        </mxCell>
        <mxCell id="SR3Ab0r8PhmCPcxvf1HX-73" value="" style="shape=table;startSize=0;container=1;collapsible=0;childLayout=tableLayout;fontSize=16;" vertex="1" parent="1">
          <mxGeometry x="380" y="668" width="280" height="100" as="geometry" />
        </mxCell>
        <mxCell id="SR3Ab0r8PhmCPcxvf1HX-74" value="" style="shape=tableRow;horizontal=0;startSize=0;swimlaneHead=0;swimlaneBody=0;strokeColor=inherit;top=0;left=0;bottom=0;right=0;collapsible=0;dropTarget=0;fillColor=none;points=[[0,0.5],[1,0.5]];portConstraint=eastwest;fontSize=16;" vertex="1" parent="SR3Ab0r8PhmCPcxvf1HX-73">
          <mxGeometry width="280" height="33" as="geometry" />
        </mxCell>
        <mxCell id="SR3Ab0r8PhmCPcxvf1HX-75" value="" style="shape=partialRectangle;html=1;whiteSpace=wrap;connectable=0;strokeColor=inherit;overflow=hidden;fillColor=none;top=0;left=0;bottom=0;right=0;pointerEvents=1;fontSize=16;" vertex="1" parent="SR3Ab0r8PhmCPcxvf1HX-74">
          <mxGeometry width="93" height="33" as="geometry">
            <mxRectangle width="93" height="33" as="alternateBounds" />
          </mxGeometry>
        </mxCell>
        <mxCell id="SR3Ab0r8PhmCPcxvf1HX-76" value="" style="shape=partialRectangle;html=1;whiteSpace=wrap;connectable=0;strokeColor=inherit;overflow=hidden;fillColor=none;top=0;left=0;bottom=0;right=0;pointerEvents=1;fontSize=16;" vertex="1" parent="SR3Ab0r8PhmCPcxvf1HX-74">
          <mxGeometry x="93" width="94" height="33" as="geometry">
            <mxRectangle width="94" height="33" as="alternateBounds" />
          </mxGeometry>
        </mxCell>
        <mxCell id="SR3Ab0r8PhmCPcxvf1HX-77" value="" style="shape=partialRectangle;html=1;whiteSpace=wrap;connectable=0;strokeColor=inherit;overflow=hidden;fillColor=none;top=0;left=0;bottom=0;right=0;pointerEvents=1;fontSize=16;" vertex="1" parent="SR3Ab0r8PhmCPcxvf1HX-74">
          <mxGeometry x="187" width="93" height="33" as="geometry">
            <mxRectangle width="93" height="33" as="alternateBounds" />
          </mxGeometry>
        </mxCell>
        <mxCell id="SR3Ab0r8PhmCPcxvf1HX-78" value="" style="shape=tableRow;horizontal=0;startSize=0;swimlaneHead=0;swimlaneBody=0;strokeColor=inherit;top=0;left=0;bottom=0;right=0;collapsible=0;dropTarget=0;fillColor=none;points=[[0,0.5],[1,0.5]];portConstraint=eastwest;fontSize=16;" vertex="1" parent="SR3Ab0r8PhmCPcxvf1HX-73">
          <mxGeometry y="33" width="280" height="34" as="geometry" />
        </mxCell>
        <mxCell id="SR3Ab0r8PhmCPcxvf1HX-79" value="" style="shape=partialRectangle;html=1;whiteSpace=wrap;connectable=0;strokeColor=inherit;overflow=hidden;fillColor=none;top=0;left=0;bottom=0;right=0;pointerEvents=1;fontSize=16;" vertex="1" parent="SR3Ab0r8PhmCPcxvf1HX-78">
          <mxGeometry width="93" height="34" as="geometry">
            <mxRectangle width="93" height="34" as="alternateBounds" />
          </mxGeometry>
        </mxCell>
        <mxCell id="SR3Ab0r8PhmCPcxvf1HX-80" value="" style="shape=partialRectangle;html=1;whiteSpace=wrap;connectable=0;strokeColor=inherit;overflow=hidden;fillColor=none;top=0;left=0;bottom=0;right=0;pointerEvents=1;fontSize=16;" vertex="1" parent="SR3Ab0r8PhmCPcxvf1HX-78">
          <mxGeometry x="93" width="94" height="34" as="geometry">
            <mxRectangle width="94" height="34" as="alternateBounds" />
          </mxGeometry>
        </mxCell>
        <mxCell id="SR3Ab0r8PhmCPcxvf1HX-81" value="" style="shape=partialRectangle;html=1;whiteSpace=wrap;connectable=0;strokeColor=inherit;overflow=hidden;fillColor=none;top=0;left=0;bottom=0;right=0;pointerEvents=1;fontSize=16;" vertex="1" parent="SR3Ab0r8PhmCPcxvf1HX-78">
          <mxGeometry x="187" width="93" height="34" as="geometry">
            <mxRectangle width="93" height="34" as="alternateBounds" />
          </mxGeometry>
        </mxCell>
        <mxCell id="SR3Ab0r8PhmCPcxvf1HX-82" value="" style="shape=tableRow;horizontal=0;startSize=0;swimlaneHead=0;swimlaneBody=0;strokeColor=inherit;top=0;left=0;bottom=0;right=0;collapsible=0;dropTarget=0;fillColor=none;points=[[0,0.5],[1,0.5]];portConstraint=eastwest;fontSize=16;" vertex="1" parent="SR3Ab0r8PhmCPcxvf1HX-73">
          <mxGeometry y="67" width="280" height="33" as="geometry" />
        </mxCell>
        <mxCell id="SR3Ab0r8PhmCPcxvf1HX-83" value="" style="shape=partialRectangle;html=1;whiteSpace=wrap;connectable=0;strokeColor=inherit;overflow=hidden;fillColor=none;top=0;left=0;bottom=0;right=0;pointerEvents=1;fontSize=16;" vertex="1" parent="SR3Ab0r8PhmCPcxvf1HX-82">
          <mxGeometry width="93" height="33" as="geometry">
            <mxRectangle width="93" height="33" as="alternateBounds" />
          </mxGeometry>
        </mxCell>
        <mxCell id="SR3Ab0r8PhmCPcxvf1HX-84" value="" style="shape=partialRectangle;html=1;whiteSpace=wrap;connectable=0;strokeColor=inherit;overflow=hidden;fillColor=none;top=0;left=0;bottom=0;right=0;pointerEvents=1;fontSize=16;" vertex="1" parent="SR3Ab0r8PhmCPcxvf1HX-82">
          <mxGeometry x="93" width="94" height="33" as="geometry">
            <mxRectangle width="94" height="33" as="alternateBounds" />
          </mxGeometry>
        </mxCell>
        <mxCell id="SR3Ab0r8PhmCPcxvf1HX-85" value="" style="shape=partialRectangle;html=1;whiteSpace=wrap;connectable=0;strokeColor=inherit;overflow=hidden;fillColor=none;top=0;left=0;bottom=0;right=0;pointerEvents=1;fontSize=16;" vertex="1" parent="SR3Ab0r8PhmCPcxvf1HX-82">
          <mxGeometry x="187" width="93" height="33" as="geometry">
            <mxRectangle width="93" height="33" as="alternateBounds" />
          </mxGeometry>
        </mxCell>
        <mxCell id="SR3Ab0r8PhmCPcxvf1HX-54" value="" style="shape=table;startSize=0;container=1;collapsible=0;childLayout=tableLayout;fontSize=16;" vertex="1" parent="1">
          <mxGeometry x="320" y="668" width="270" height="100" as="geometry" />
        </mxCell>
        <mxCell id="SR3Ab0r8PhmCPcxvf1HX-55" value="" style="shape=tableRow;horizontal=0;startSize=0;swimlaneHead=0;swimlaneBody=0;strokeColor=inherit;top=0;left=0;bottom=0;right=0;collapsible=0;dropTarget=0;fillColor=none;points=[[0,0.5],[1,0.5]];portConstraint=eastwest;fontSize=16;" vertex="1" parent="SR3Ab0r8PhmCPcxvf1HX-54">
          <mxGeometry width="270" height="33" as="geometry" />
        </mxCell>
        <mxCell id="SR3Ab0r8PhmCPcxvf1HX-56" value="example.arff" style="shape=partialRectangle;html=1;whiteSpace=wrap;connectable=0;strokeColor=inherit;overflow=hidden;fillColor=none;top=0;left=0;bottom=0;right=0;pointerEvents=1;fontSize=16;" vertex="1" parent="SR3Ab0r8PhmCPcxvf1HX-55">
          <mxGeometry width="90" height="33" as="geometry">
            <mxRectangle width="90" height="33" as="alternateBounds" />
          </mxGeometry>
        </mxCell>
        <mxCell id="SR3Ab0r8PhmCPcxvf1HX-57" value="2023/01/02" style="shape=partialRectangle;html=1;whiteSpace=wrap;connectable=0;strokeColor=inherit;overflow=hidden;fillColor=none;top=0;left=0;bottom=0;right=0;pointerEvents=1;fontSize=16;" vertex="1" parent="SR3Ab0r8PhmCPcxvf1HX-55">
          <mxGeometry x="90" width="90" height="33" as="geometry">
            <mxRectangle width="90" height="33" as="alternateBounds" />
          </mxGeometry>
        </mxCell>
        <mxCell id="SR3Ab0r8PhmCPcxvf1HX-58" value="&lt;font style=&quot;font-size: 12px;&quot;&gt;Self-Training&lt;/font&gt;" style="shape=partialRectangle;html=1;whiteSpace=wrap;connectable=0;strokeColor=inherit;overflow=hidden;fillColor=none;top=0;left=0;bottom=0;right=0;pointerEvents=1;fontSize=16;" vertex="1" parent="SR3Ab0r8PhmCPcxvf1HX-55">
          <mxGeometry x="180" width="90" height="33" as="geometry">
            <mxRectangle width="90" height="33" as="alternateBounds" />
          </mxGeometry>
        </mxCell>
        <mxCell id="SR3Ab0r8PhmCPcxvf1HX-59" value="" style="shape=tableRow;horizontal=0;startSize=0;swimlaneHead=0;swimlaneBody=0;strokeColor=inherit;top=0;left=0;bottom=0;right=0;collapsible=0;dropTarget=0;fillColor=none;points=[[0,0.5],[1,0.5]];portConstraint=eastwest;fontSize=16;" vertex="1" parent="SR3Ab0r8PhmCPcxvf1HX-54">
          <mxGeometry y="33" width="270" height="34" as="geometry" />
        </mxCell>
        <mxCell id="SR3Ab0r8PhmCPcxvf1HX-60" value="" style="shape=partialRectangle;html=1;whiteSpace=wrap;connectable=0;strokeColor=inherit;overflow=hidden;fillColor=none;top=0;left=0;bottom=0;right=0;pointerEvents=1;fontSize=16;" vertex="1" parent="SR3Ab0r8PhmCPcxvf1HX-59">
          <mxGeometry width="90" height="34" as="geometry">
            <mxRectangle width="90" height="34" as="alternateBounds" />
          </mxGeometry>
        </mxCell>
        <mxCell id="SR3Ab0r8PhmCPcxvf1HX-61" value="" style="shape=partialRectangle;html=1;whiteSpace=wrap;connectable=0;strokeColor=inherit;overflow=hidden;fillColor=none;top=0;left=0;bottom=0;right=0;pointerEvents=1;fontSize=16;" vertex="1" parent="SR3Ab0r8PhmCPcxvf1HX-59">
          <mxGeometry x="90" width="90" height="34" as="geometry">
            <mxRectangle width="90" height="34" as="alternateBounds" />
          </mxGeometry>
        </mxCell>
        <mxCell id="SR3Ab0r8PhmCPcxvf1HX-62" value="" style="shape=partialRectangle;html=1;whiteSpace=wrap;connectable=0;strokeColor=inherit;overflow=hidden;fillColor=none;top=0;left=0;bottom=0;right=0;pointerEvents=1;fontSize=16;" vertex="1" parent="SR3Ab0r8PhmCPcxvf1HX-59">
          <mxGeometry x="180" width="90" height="34" as="geometry">
            <mxRectangle width="90" height="34" as="alternateBounds" />
          </mxGeometry>
        </mxCell>
        <mxCell id="SR3Ab0r8PhmCPcxvf1HX-63" value="" style="shape=tableRow;horizontal=0;startSize=0;swimlaneHead=0;swimlaneBody=0;strokeColor=inherit;top=0;left=0;bottom=0;right=0;collapsible=0;dropTarget=0;fillColor=none;points=[[0,0.5],[1,0.5]];portConstraint=eastwest;fontSize=16;" vertex="1" parent="SR3Ab0r8PhmCPcxvf1HX-54">
          <mxGeometry y="67" width="270" height="33" as="geometry" />
        </mxCell>
        <mxCell id="SR3Ab0r8PhmCPcxvf1HX-64" value="" style="shape=partialRectangle;html=1;whiteSpace=wrap;connectable=0;strokeColor=inherit;overflow=hidden;fillColor=none;top=0;left=0;bottom=0;right=0;pointerEvents=1;fontSize=16;" vertex="1" parent="SR3Ab0r8PhmCPcxvf1HX-63">
          <mxGeometry width="90" height="33" as="geometry">
            <mxRectangle width="90" height="33" as="alternateBounds" />
          </mxGeometry>
        </mxCell>
        <mxCell id="SR3Ab0r8PhmCPcxvf1HX-65" value="" style="shape=partialRectangle;html=1;whiteSpace=wrap;connectable=0;strokeColor=inherit;overflow=hidden;fillColor=none;top=0;left=0;bottom=0;right=0;pointerEvents=1;fontSize=16;" vertex="1" parent="SR3Ab0r8PhmCPcxvf1HX-63">
          <mxGeometry x="90" width="90" height="33" as="geometry">
            <mxRectangle width="90" height="33" as="alternateBounds" />
          </mxGeometry>
        </mxCell>
        <mxCell id="SR3Ab0r8PhmCPcxvf1HX-66" value="" style="shape=partialRectangle;html=1;whiteSpace=wrap;connectable=0;strokeColor=inherit;overflow=hidden;fillColor=none;top=0;left=0;bottom=0;right=0;pointerEvents=1;fontSize=16;" vertex="1" parent="SR3Ab0r8PhmCPcxvf1HX-63">
          <mxGeometry x="180" width="90" height="33" as="geometry">
            <mxRectangle width="90" height="33" as="alternateBounds" />
          </mxGeometry>
        </mxCell>
        <mxCell id="SR3Ab0r8PhmCPcxvf1HX-67" value="RE-RUN" style="rounded=1;fillColor=#d5e8d4;strokeColor=#82b366;html=1;whiteSpace=wrap;align=center;verticalAlign=middle;fontStyle=0;fontSize=12;sketch=0;" vertex="1" parent="1">
          <mxGeometry x="593" y="670.5" width="64" height="28" as="geometry" />
        </mxCell>
        <mxCell id="SR3Ab0r8PhmCPcxvf1HX-86" value="" style="rounded=0;whiteSpace=wrap;html=1;" vertex="1" parent="1">
          <mxGeometry x="30" y="870" width="710" height="460" as="geometry" />
        </mxCell>
        <mxCell id="SR3Ab0r8PhmCPcxvf1HX-87" value="" style="rounded=0;whiteSpace=wrap;html=1;fillColor=#808080;" vertex="1" parent="1">
          <mxGeometry x="30" y="870" width="710" height="30" as="geometry" />
        </mxCell>
        <mxCell id="SR3Ab0r8PhmCPcxvf1HX-88" value="David " style="text;html=1;align=center;verticalAlign=middle;whiteSpace=wrap;rounded=0;fontColor=#FFFFFF;" vertex="1" parent="1">
          <mxGeometry x="680" y="870" width="60" height="30" as="geometry" />
        </mxCell>
        <mxCell id="SR3Ab0r8PhmCPcxvf1HX-89" value="Log Out" style="text;html=1;align=center;verticalAlign=middle;whiteSpace=wrap;rounded=0;fontColor=#FFFFFF;" vertex="1" parent="1">
          <mxGeometry x="630" y="870" width="60" height="30" as="geometry" />
        </mxCell>
        <mxCell id="SR3Ab0r8PhmCPcxvf1HX-90" value="&lt;div&gt;ID&lt;/div&gt;&lt;div&gt;&lt;br&gt;&lt;/div&gt;&lt;div&gt;&lt;br&gt;&lt;/div&gt;&lt;div&gt;NAME&lt;/div&gt;&lt;div&gt;&lt;br&gt;&lt;/div&gt;&lt;div&gt;&lt;br&gt;&lt;/div&gt;&lt;div&gt;&lt;br&gt;&lt;/div&gt;&lt;div&gt;EMAIL&lt;br&gt;&lt;/div&gt;" style="rounded=1;whiteSpace=wrap;html=1;" vertex="1" parent="1">
          <mxGeometry x="50" y="930" width="220" height="380" as="geometry" />
        </mxCell>
        <mxCell id="SR3Ab0r8PhmCPcxvf1HX-91" value="PROFILE" style="text;html=1;strokeColor=none;fillColor=none;align=center;verticalAlign=middle;whiteSpace=wrap;rounded=0;fontSize=31;" vertex="1" parent="1">
          <mxGeometry x="130" y="940" width="60" height="30" as="geometry" />
        </mxCell>
        <mxCell id="SR3Ab0r8PhmCPcxvf1HX-92" value="" style="rounded=1;whiteSpace=wrap;html=1;" vertex="1" parent="1">
          <mxGeometry x="290" y="930" width="420" height="380" as="geometry" />
        </mxCell>
        <mxCell id="SR3Ab0r8PhmCPcxvf1HX-93" value="EDIT PROFILE" style="text;html=1;strokeColor=none;fillColor=none;align=center;verticalAlign=middle;whiteSpace=wrap;rounded=0;fontSize=31;" vertex="1" parent="1">
          <mxGeometry x="340" y="940" width="340" height="30" as="geometry" />
        </mxCell>
        <mxCell id="SR3Ab0r8PhmCPcxvf1HX-141" value="" style="rounded=0;whiteSpace=wrap;html=1;" vertex="1" parent="1">
          <mxGeometry x="320" y="1010" width="260" height="30" as="geometry" />
        </mxCell>
        <mxCell id="SR3Ab0r8PhmCPcxvf1HX-142" value="NAME" style="text;html=1;strokeColor=none;fillColor=none;align=center;verticalAlign=middle;whiteSpace=wrap;rounded=0;" vertex="1" parent="1">
          <mxGeometry x="310" y="980" width="60" height="30" as="geometry" />
        </mxCell>
        <mxCell id="SR3Ab0r8PhmCPcxvf1HX-143" value="" style="rounded=0;whiteSpace=wrap;html=1;" vertex="1" parent="1">
          <mxGeometry x="320" y="1080" width="260" height="30" as="geometry" />
        </mxCell>
        <mxCell id="SR3Ab0r8PhmCPcxvf1HX-144" value="EMAIL" style="text;html=1;strokeColor=none;fillColor=none;align=center;verticalAlign=middle;whiteSpace=wrap;rounded=0;" vertex="1" parent="1">
          <mxGeometry x="310" y="1050" width="60" height="30" as="geometry" />
        </mxCell>
        <mxCell id="SR3Ab0r8PhmCPcxvf1HX-145" value="" style="rounded=0;whiteSpace=wrap;html=1;" vertex="1" parent="1">
          <mxGeometry x="320" y="1150" width="260" height="30" as="geometry" />
        </mxCell>
        <mxCell id="SR3Ab0r8PhmCPcxvf1HX-146" value="PASSWORD" style="text;html=1;strokeColor=none;fillColor=none;align=center;verticalAlign=middle;whiteSpace=wrap;rounded=0;" vertex="1" parent="1">
          <mxGeometry x="325" y="1120" width="60" height="30" as="geometry" />
        </mxCell>
        <mxCell id="SR3Ab0r8PhmCPcxvf1HX-147" value="SEND" style="rounded=1;fillColor=#0057D8;strokeColor=none;html=1;whiteSpace=wrap;fontColor=#ffffff;align=center;verticalAlign=middle;fontStyle=0;fontSize=12;sketch=0;" vertex="1" parent="1">
          <mxGeometry x="457" y="1220" width="86" height="33" as="geometry" />
        </mxCell>
      </root>
    </mxGraphModel>
  </diagram>
</mxfile>
